<?xml version="1.0" encoding="utf-8"?>
<!-- Generator: Adobe Illustrator 22.1.0, SVG Export Plug-In . SVG Version: 6.00 Build 0)  -->
<svg version="1.1" id="Capa_1" xmlns="http://www.w3.org/2000/svg" xmlns:xlink="http://www.w3.org/1999/xlink" x="0px" y="0px"
	 viewBox="0 0 455.4 455.4" style="enable-background:new 0 0 455.4 455.4;" xml:space="preserve">
<style type="text/css">
	.st0{fill:#0011D4;}
	.st1{fill:#1560F4;}
	.st2{fill:#FFFFFF;}
</style>
<path class="st0" d="M405.5,412.8c-69.7,56.9-287.3,56.9-355.6,0c-69.7-56.9-62.6-300.1,0-364.1s293-64,355.6,0
	S475.2,355.9,405.5,412.8z"/>
<path class="st1" d="M229.1,313.2C166.6,363,96.9,388.6,31.4,390C-16.9,307.5-7,107,49.9,48.7c51.2-52.6,211.9-62.6,304.4-29.9
	C377,112.7,330.1,232.1,229.1,313.2z"/>
<path class="st2" d="M300.2,348.8l-22.8-52.6h-101l-22.8,52.6H96.9L200.7,107h52.6l103.8,241.8H300.2z M227.7,179.5l-29.9,69.7H259
	L227.7,179.5z"/>
</svg>
